<svg xmlns="http://www.w3.org/2000/svg" width="1200" height="780" viewBox="0 0 1200 780">
<style>.title{font-family:'Noto Sans CJK SC','Microsoft YaHei',Arial,sans-serif;font-size:30px;font-weight:700;fill:#111827}.axis{stroke:#334155;stroke-width:2}.grid{stroke:#dbeafe;stroke-width:1}.label{font-family:'Noto Sans CJK SC','Microsoft YaHei',Arial,sans-serif;font-size:16px;fill:#111827}.small{font-family:'Noto Sans CJK SC','Microsoft YaHei',Arial,sans-serif;font-size:14px;fill:#475569}.legend{font-family:'Noto Sans CJK SC','Microsoft YaHei',Arial,sans-serif;font-size:15px;fill:#111827}</style>
<text x="600" y="74" text-anchor="middle" class="small">横轴：decode速度；纵轴：核心数据集平均得分（排除POPE常数项）；圆点标签含内存占用</text>
<line x1="110.0" y1="95" x2="110.0" y2="680" class="grid"/>
<text x="110.0" y="708" text-anchor="middle" class="small">0</text>
<line x1="365.0" y1="95" x2="365.0" y2="680" class="grid"/>
<text x="365.0" y="708" text-anchor="middle" class="small">10</text>
<line x1="620.0" y1="95" x2="620.0" y2="680" class="grid"/>
<text x="620.0" y="708" text-anchor="middle" class="small">20</text>
<line x1="875.0" y1="95" x2="875.0" y2="680" class="grid"/>
<text x="875.0" y="708" text-anchor="middle" class="small">30</text>
<line x1="1130.0" y1="95" x2="1130.0" y2="680" class="grid"/>
<text x="1130.0" y="708" text-anchor="middle" class="small">40</text>
<line x1="110" y1="611.2" x2="1130" y2="611.2" class="grid"/>
<text x="98" y="616.2" text-anchor="end" class="small">0.15</text>
<line x1="110" y1="439.1" x2="1130" y2="439.1" class="grid"/>
<text x="98" y="444.1" text-anchor="end" class="small">0.20</text>
<line x1="110" y1="267.1" x2="1130" y2="267.1" class="grid"/>
<text x="98" y="272.1" text-anchor="end" class="small">0.25</text>
<line x1="110" y1="95.0" x2="1130" y2="95.0" class="grid"/>
<text x="98" y="100.0" text-anchor="end" class="small">0.30</text>
<line x1="110" y1="95" x2="110" y2="680" class="axis"/>
<line x1="110" y1="680" x2="1130" y2="680" class="axis"/>
<circle cx="199.0" cy="281.9" r="8" fill="#94a3b8" stroke="#475569" stroke-width="2"/>
<text x="211.0" y="271.9" class="small">fp16 (16.90GB)</text>
<circle cx="873.7" cy="312.3" r="8" fill="#94a3b8" stroke="#475569" stroke-width="2"/>
<text x="885.7" y="302.3" class="small">fp16_eagle (17.28GB)</text>
<circle cx="686.8" cy="530.1" r="8" fill="#94a3b8" stroke="#475569" stroke-width="2"/>
<text x="698.8" y="520.1" class="small">omniw4a16 (2.96GB)</text>
<circle cx="923.2" cy="342.9" r="11" fill="#16a34a" stroke="#14532d" stroke-width="2"/>
<text x="753.2" y="370.9" class="small">omniw4a16_eagle (2.93GB)</text>
<circle cx="409.6" cy="210.1" r="8" fill="#94a3b8" stroke="#475569" stroke-width="2"/>
<text x="421.6" y="200.1" class="small">omniw8a8 (5.25GB)</text>
<circle cx="588.6" cy="214.7" r="8" fill="#94a3b8" stroke="#475569" stroke-width="2"/>
<text x="600.6" y="204.7" class="small">omniw8a8_eagle (5.25GB)</text>
<circle cx="601.1" cy="198.2" r="11" fill="#16a34a" stroke="#14532d" stroke-width="2"/>
<text x="616.1" y="180.2" class="small">smoothw4a16 (2.93GB)</text>
<circle cx="1056.0" cy="405.5" r="11" fill="#16a34a" stroke="#14532d" stroke-width="2"/>
<text x="866.0" y="391.5" class="small">smoothw4a16_eagle (2.93GB)</text>
<rect x="860" y="110" width="250" height="70" fill="#f8fafc" stroke="#cbd5e1" rx="12"/>
<circle cx="885" cy="135" r="9" fill="#16a34a" stroke="#14532d" stroke-width="2"/><text x="905" y="141" class="legend">帕累托前沿模型</text>
<circle cx="885" cy="165" r="8" fill="#94a3b8" stroke="#475569" stroke-width="2"/><text x="905" y="171" class="legend">被支配模型</text>
<text x="600" y="740" text-anchor="middle" class="label">decode speed (tokens/s)</text>
<text transform="translate(36 430) rotate(-90)" text-anchor="middle" class="label">核心平均得分</text>
</svg>
