<svg xmlns="http://www.w3.org/2000/svg" width="1200" height="700" viewBox="0 0 1200 700">
<style>.title{font-family:'Noto Sans CJK SC','Microsoft YaHei',Arial,sans-serif;font-size:30px;font-weight:700;fill:#111827}.axis{stroke:#334155;stroke-width:2}.grid{stroke:#cbd5e1;stroke-width:1}.label{font-family:'Noto Sans CJK SC','Microsoft YaHei',Arial,sans-serif;font-size:16px;fill:#111827}.small{font-family:'Noto Sans CJK SC','Microsoft YaHei',Arial,sans-serif;font-size:14px;fill:#475569}.bartext{font-family:Arial,sans-serif;font-size:15px;fill:#111827;font-weight:600}</style>
<text x="600" y="45" text-anchor="middle" class="title">第三章候选模型 decode 速度对比</text>
<text x="600" y="76" text-anchor="middle" class="small">数据来源：Expriment/3_1_qunatize/可用性.md</text>
<line x1="170.0" y1="110" x2="170.0" y2="536" class="grid"/>
<text x="170.0" y="566" text-anchor="middle" class="small">0</text>
<line x1="412.5" y1="110" x2="412.5" y2="536" class="grid"/>
<text x="412.5" y="566" text-anchor="middle" class="small">10</text>
<line x1="655.0" y1="110" x2="655.0" y2="536" class="grid"/>
<text x="655.0" y="566" text-anchor="middle" class="small">20</text>
<line x1="897.5" y1="110" x2="897.5" y2="536" class="grid"/>
<text x="897.5" y="566" text-anchor="middle" class="small">30</text>
<line x1="1140.0" y1="110" x2="1140.0" y2="536" class="grid"/>
<text x="1140.0" y="566" text-anchor="middle" class="small">40</text>
<text x="158" y="144" text-anchor="end" class="label">fp16</text>
<rect x="170" y="120" width="84.6" height="36" rx="8" ry="8" fill="#64748b"/>
<text x="262.6" y="144" class="bartext">3.49 t/s</text>
<text x="158" y="196" text-anchor="end" class="label">fp16_eagle</text>
<rect x="170" y="172" width="726.3" height="36" rx="8" ry="8" fill="#60a5fa"/>
<text x="904.3" y="196" class="bartext">29.95 t/s</text>
<text x="158" y="248" text-anchor="end" class="label">omniw4a16</text>
<rect x="170" y="224" width="548.5" height="36" rx="8" ry="8" fill="#22c55e"/>
<text x="726.5" y="248" class="bartext">22.62 t/s</text>
<text x="158" y="300" text-anchor="end" class="label">omniw4a16_eagle</text>
<rect x="170" y="276" width="773.3" height="36" rx="8" ry="8" fill="#86efac"/>
<text x="951.3" y="300" class="bartext">31.89 t/s</text>
<text x="158" y="352" text-anchor="end" class="label">omniw8a8</text>
<rect x="170" y="328" width="284.9" height="36" rx="8" ry="8" fill="#f97316"/>
<text x="462.9" y="352" class="bartext">11.75 t/s</text>
<text x="158" y="404" text-anchor="end" class="label">omniw8a8_eagle</text>
<rect x="170" y="380" width="455.2" height="36" rx="8" ry="8" fill="#fdba74"/>
<text x="633.2" y="404" class="bartext">18.77 t/s</text>
<text x="158" y="456" text-anchor="end" class="label">smoothw4a16</text>
<rect x="170" y="432" width="467.1" height="36" rx="8" ry="8" fill="#9333ea"/>
<text x="645.1" y="456" class="bartext">19.26 t/s</text>
<text x="158" y="508" text-anchor="end" class="label">smoothw4a16_eagle</text>
<rect x="170" y="484" width="899.7" height="36" rx="8" ry="8" fill="#c084fc"/>
<text x="1077.7" y="508" class="bartext">37.10 t/s</text>
<line x1="170" y1="110" x2="170" y2="536" class="axis"/>
<line x1="170" y1="536" x2="1140" y2="536" class="axis"/>
<text x="600" y="650" text-anchor="middle" class="label">decode speed (tokens/s)，数值越高表示生成阶段吞吐越好</text>
</svg>